<svg xmlns="http://www.w3.org/2000/svg" width="31" height="31" viewBox="0 0 31 31">
  <path id="instagram" d="M15.5,31A15.5,15.5,0,0,1,4.54,4.54,15.5,15.5,0,0,1,26.46,26.46,15.4,15.4,0,0,1,15.5,31Zm5.557-18.838h0a4.131,4.131,0,0,0-4.015,2.39,6.21,6.21,0,0,0-.572,2.389,5.161,5.161,0,0,0,1.181,3.482,4.456,4.456,0,0,0,3.4,1.273s.064,0,.165,0a5.339,5.339,0,0,0,2.246-.485,2.913,2.913,0,0,0,1.672-2.826h-2.1a1.222,1.222,0,0,1-.334.818,2.1,2.1,0,0,1-1.579.52s-.029,0-.074,0a2.271,2.271,0,0,1-1.153-.314,2.013,2.013,0,0,1-.874-1.852h6.18a6.452,6.452,0,0,0-.711-3.688,3.748,3.748,0,0,0-3.438-1.712ZM6,9V21.438h6.251a4.633,4.633,0,0,0,2.029-.5A3.3,3.3,0,0,0,16,17.766a3.811,3.811,0,0,0-.775-2.511,1.943,1.943,0,0,0-1.46-.578,2.135,2.135,0,0,0,1.82-2.366A3.1,3.1,0,0,0,12.21,9Zm12.489.73v1.534h4.924V9.73Zm-6.456,9.5h-3.3V15.9H12.21a1.211,1.211,0,0,1,.649.221,1.7,1.7,0,0,1,.61,1.487C13.469,18.661,12.986,19.205,12.034,19.226ZM22.926,15.9h-3.92a2.176,2.176,0,0,1,2.1-1.916,1.712,1.712,0,0,1,1.27.475,2.243,2.243,0,0,1,.551,1.44ZM11.994,13.985H8.736V11.209H12.21c.008,0,.844.015.844,1.293C13.055,13.805,12.545,13.985,11.994,13.985Z" fill="#fff"/>
</svg>
