<svg xmlns="http://www.w3.org/2000/svg" width="30.72" height="30.72" viewBox="0 0 30.72 30.72">
  <path id="dribbble-with-circle" d="M16.416,15.971c.053-.019.109-.034.165-.05-.133-.3-.28-.6-.446-.934a23.292,23.292,0,0,1-6.4.891A1,1,0,0,0,9.728,16a6.26,6.26,0,0,0,1.533,4.106,10.206,10.206,0,0,1,5.155-4.134ZM12.2,20.981a6.262,6.262,0,0,0,6.193.819,26.442,26.442,0,0,0-1.315-4.675A8.629,8.629,0,0,0,12.2,20.981Zm7.891-9.738A6.265,6.265,0,0,0,14.64,9.878a32.233,32.233,0,0,1,2.274,3.557A7.066,7.066,0,0,0,20.088,11.243Zm-4.56,2.619a38.1,38.1,0,0,0-2.264-3.506,6.3,6.3,0,0,0-3.381,4.253H9.91a23.478,23.478,0,0,0,5.618-.747Zm2.894,2.932a27.963,27.963,0,0,1,1.184,4.338,6.3,6.3,0,0,0,2.574-4.069,9.277,9.277,0,0,0-2.547-.354,8.557,8.557,0,0,0-1.211.085ZM16,.64A15.36,15.36,0,1,0,31.36,16,15.36,15.36,0,0,0,16,.64Zm0,22.875A7.516,7.516,0,1,1,23.517,16,7.524,7.524,0,0,1,16,23.515Zm1.475-9c.139.288.269.571.387.85.037.091.077.181.114.272a11.946,11.946,0,0,1,1.411-.078,15.588,15.588,0,0,1,2.882.275,6.287,6.287,0,0,0-1.363-3.744,8.555,8.555,0,0,1-3.43,2.426Z" transform="translate(-0.64 -0.64)" fill="#fff"/>
</svg>
