<svg xmlns="http://www.w3.org/2000/svg" width="30.72" height="30.72" viewBox="0 0 30.72 30.72">
  <path id="instagram-with-circle" d="M20.8,16a4.8,4.8,0,0,1-9.6,0,4.3,4.3,0,0,1,.078-.8H9.6v6.4a.8.8,0,0,0,.805.805H21.6a.8.8,0,0,0,.8-.805V15.2H20.722a4.214,4.214,0,0,1,.078.8ZM16,19.2A3.2,3.2,0,1,0,12.8,16,3.2,3.2,0,0,0,16,19.2Zm3.84-6.56h1.918a.482.482,0,0,0,.482-.48V10.242a.482.482,0,0,0-.482-.482H19.84a.482.482,0,0,0-.482.482V12.16A.484.484,0,0,0,19.84,12.64ZM16,.64A15.36,15.36,0,1,0,31.36,16,15.36,15.36,0,0,0,16,.64Zm8,21.582A1.783,1.783,0,0,1,22.222,24H9.777A1.783,1.783,0,0,1,8,22.222V9.777A1.783,1.783,0,0,1,9.777,8H22.222A1.783,1.783,0,0,1,24,9.777Z" transform="translate(-0.64 -0.64)" fill="#fff"/>
</svg>
