<svg xmlns="http://www.w3.org/2000/svg" width="17.479" height="24" viewBox="0 0 17.479 24">
  <path id="phone2" d="M14.162,17.568c-.023-.016-2.654-4.439-2.662-4.5-.544-1.189-.983-2.4-.068-2.944l-3.8-6.4C6.651,4.462,3.868,8.454,9.077,17.5c5.487,9.533,10.709,9.137,11.756,8.491l-3.7-6.249C16.259,20.256,15.523,19.409,14.162,17.568Zm9.21,6V23.56s-2.889-4.868-2.891-4.87a.808.808,0,0,0-1.105-.283l-1.77,1.047,3.71,6.267s1.77-1.042,1.769-1.045h0A.807.807,0,0,0,23.372,23.565ZM13.685,8.8v0a.8.8,0,0,0,.284-1.106l0-.005S11,2.675,11,2.674a.806.806,0,0,0-1.1-.283L8.123,3.438l3.792,6.406S13.684,8.8,13.685,8.8Z" transform="translate(-6.008 -2.279)" fill="#fff"/>
</svg>
