<svg xmlns="http://www.w3.org/2000/svg" width="30.72" height="30.72" viewBox="0 0 30.72 30.72">
  <path id="pinterest-with-circle" d="M16,.64A15.36,15.36,0,1,0,31.36,16,15.36,15.36,0,0,0,16,.64Zm1.051,19a4.4,4.4,0,0,1-2.17-1.03c-.424,2.226-.942,4.36-2.478,5.475-.475-3.366.694-5.891,1.238-8.574-.926-1.56.11-4.7,2.066-3.926,2.405.954-2.083,5.8.93,6.406,3.146.63,4.43-5.459,2.48-7.437-2.819-2.859-8.2-.066-7.541,4.027.16,1,1.195,1.3.413,2.685-1.8-.4-2.342-1.822-2.272-3.718A6.067,6.067,0,0,1,15.191,7.97c3.4-.378,6.584,1.246,7.026,4.443.494,3.606-1.534,7.509-5.165,7.227Z" transform="translate(-0.64 -0.64)" fill="#fff"/>
</svg>
